<svg width="602" height="603" viewBox="0 0 602 603" fill="none" xmlns="http://www.w3.org/2000/svg">
<path d="M582.824 0.0532227C584.276 0.0268774 584.276 0.0268774 585.759 0C591.055 0.00465824 594.92 0.296403 599.449 3.36572C601.805 6.89966 601.706 8.40201 601.714 12.5884C601.719 13.8395 601.723 15.0906 601.727 16.3796C601.719 17.7292 601.71 19.0787 601.699 20.4282C601.695 21.1117 601.692 21.7951 601.688 22.4992C601.625 33.2465 601.149 43.7448 599.449 54.3657C599.282 55.4365 599.116 56.5072 598.944 57.6104C592.957 95.597 582.297 132.867 567.449 168.366C567.023 169.387 566.597 170.408 566.158 171.46C551.848 205.455 534.596 238.094 512.636 267.803C512.034 268.617 511.433 269.432 510.813 270.271C505.626 277.228 500.183 283.855 494.449 290.366C494.009 290.867 493.569 291.368 493.116 291.884C485.964 299.98 478.337 307.114 470.1 314.086C435.715 341.374 435.715 341.374 418.394 379.545C417.639 390.495 418.708 401.366 420.344 412.196C422.628 427.616 419.076 441.425 412.449 455.366C411.911 456.498 411.374 457.629 410.82 458.795C403.672 472.891 392.572 483.545 381.492 494.588C380.057 496.025 378.622 497.462 377.187 498.899C374.201 501.888 371.211 504.874 368.219 507.857C364.384 511.68 360.559 515.512 356.736 519.347C353.784 522.306 350.828 525.26 347.87 528.212C346.456 529.624 345.045 531.038 343.634 532.453C341.67 534.422 339.699 536.385 337.727 538.346C336.858 539.221 336.858 539.221 335.971 540.114C331.815 544.227 329.375 546.148 323.574 546.803C320.324 546.73 318.549 546.084 316.011 544.053C311.817 539.654 312.293 535.521 312.324 529.764C312.328 528.352 312.328 528.352 312.332 526.912C312.432 510.529 312.944 494.147 313.376 477.77C313.499 473.09 313.618 468.409 313.738 463.729C313.972 454.608 314.209 445.487 314.449 436.366C313.879 436.507 313.309 436.648 312.722 436.793C305.378 438.53 298.425 438.711 290.886 438.678C289.886 438.675 289.886 438.675 288.865 438.673C274.256 438.605 261.611 436.43 247.851 431.549C246.728 431.159 245.606 430.768 244.449 430.366C242.685 429.637 242.685 429.637 240.886 428.893C237.339 427.95 237.339 427.95 234.484 430.374C233.474 431.394 232.484 432.435 231.511 433.491C230.379 434.622 229.241 435.747 228.097 436.866C227.504 437.448 226.911 438.031 226.299 438.631C208.255 455.542 181.425 472.87 156.074 473.866C147.783 473.543 141.253 470.17 135.449 464.366C129.686 456.263 128.489 448.063 129.449 438.366C133.08 420.745 142.739 404.592 153.449 390.366C153.878 389.795 154.307 389.225 154.75 388.637C156.118 386.829 157.498 385.033 158.886 383.241C159.567 382.361 159.567 382.361 160.261 381.463C162.526 378.595 164.835 375.919 167.476 373.389C172.533 368.931 172.533 368.931 174.542 362.885C173.759 360.205 172.685 357.868 171.449 355.366C166.378 341.663 163.935 328.54 164.113 314.002C164.137 311.905 164.133 309.809 164.126 307.711C164.154 300.912 164.634 294.925 166.449 288.366C165.896 288.393 165.342 288.42 164.772 288.449C144.916 289.419 125.065 289.915 105.189 290.262C101.452 290.327 97.7147 290.403 93.9776 290.489C89.7689 290.585 85.5606 290.656 81.3512 290.707C79.8057 290.729 78.2604 290.76 76.7153 290.8C63.4853 291.133 63.4853 291.133 59.5386 288.03C56.7651 284.494 55.7774 281.164 55.8663 276.638C56.6388 273.624 58.0169 272.214 60.1433 269.948C61.3756 268.63 61.3756 268.63 62.6328 267.286C63.5695 266.311 64.5082 265.337 65.4488 264.366C65.9401 263.857 66.4315 263.348 66.9377 262.824C70.9129 258.722 74.9327 254.666 78.9605 250.616C79.5967 249.975 80.2329 249.335 80.8884 248.675C84.2538 245.289 87.6224 241.906 90.9934 238.526C94.4364 235.072 97.8675 231.606 101.296 228.138C103.971 225.437 106.654 222.745 109.34 220.056C110.607 218.784 111.871 217.508 113.132 216.229C128.448 200.699 144.946 188.794 166.449 183.366C167.367 183.123 168.286 182.881 169.232 182.632C176.362 181.191 181.945 181.477 189.039 182.821C206.069 185.95 226.233 188.484 241.762 178.944C263.587 163.761 281.744 142.021 299.037 122.031C305.722 114.315 312.255 107.521 320.449 101.366C321.661 100.369 322.868 99.3671 324.066 98.354C382.979 49.6521 461.389 17.9671 536.294 4.74756C538.104 4.42676 539.912 4.08957 541.718 3.74854C555.296 1.27987 569.035 0.187361 582.824 0.0532227Z" fill="#6E00BB"/>
<path d="M424.449 64.3657C426.716 67.7671 427.807 71.2119 429.074 75.0532C442.475 114.139 473.904 147.64 510.449 166.366C513.529 167.857 516.636 169.282 519.761 170.678C520.854 171.166 520.854 171.166 521.968 171.664C527.036 173.873 532.179 175.697 537.449 177.366C536.041 181.952 534.187 186.167 532.011 190.428C531.664 191.112 531.317 191.796 530.959 192.501C530.199 193.996 529.435 195.489 528.67 196.981C527.84 198.602 527.014 200.226 526.192 201.852C514.907 224.175 501.61 245.201 485.886 264.678C485.405 265.275 484.923 265.872 484.427 266.488C476.084 276.639 466.899 286.066 457.628 295.363C456.598 296.399 455.569 297.436 454.539 298.472C451.209 301.823 447.874 305.169 444.539 308.514C443.38 309.677 442.222 310.839 441.063 312.002C435.626 317.458 430.186 322.912 424.744 328.363C418.495 334.621 412.255 340.888 406.021 347.162C401.174 352.039 396.32 356.908 391.46 361.772C388.568 364.665 385.68 367.562 382.801 370.467C380.095 373.196 377.38 375.916 374.657 378.628C373.666 379.619 372.678 380.613 371.695 381.61C357.109 396.389 357.109 396.389 347.261 396.991C323.649 395.465 301.525 380.605 283.449 366.366C283.976 362.19 284.687 358.356 286.011 354.366C288.424 345.64 289.197 336.124 285.324 327.741C281.86 321.89 277.566 318.063 270.96 315.874C260.961 313.852 251.857 315.34 242.375 318.588C239.329 319.397 238.316 319.452 235.449 318.366C234.036 316.946 234.036 316.946 232.75 315.112C232.267 314.431 231.784 313.749 231.287 313.048C230.784 312.307 230.28 311.566 229.761 310.803C229.234 310.037 228.706 309.272 228.163 308.483C218.087 293.644 206.548 275.482 206.136 257.053C206.099 255.964 206.061 254.875 206.023 253.752C206.86 247.096 211.049 242.376 215.518 237.618C215.998 237.105 216.478 236.592 216.973 236.063C221.998 230.72 227.157 225.509 232.345 220.324C233.383 219.283 234.421 218.241 235.459 217.2C238.24 214.411 241.024 211.624 243.808 208.839C245.555 207.091 247.301 205.343 249.048 203.594C255.159 197.473 261.273 191.355 267.39 185.24C273.06 179.569 278.726 173.894 284.388 168.215C289.28 163.31 294.176 158.409 299.075 153.511C301.987 150.598 304.899 147.684 307.806 144.766C310.54 142.023 313.278 139.284 316.021 136.549C317.018 135.553 318.013 134.556 319.006 133.556C327.565 124.948 336.696 117.191 346.511 110.053C347.132 109.601 347.753 109.148 348.393 108.682C372.396 91.3431 397.977 77.5206 424.449 64.3657Z" fill="white"/>
<path d="M432.777 166.881C447.548 180.616 456.557 198.751 457.577 218.886C458.167 238.959 458.167 238.959 454.449 248.366C454.097 249.322 453.745 250.279 453.382 251.264C444.472 274.143 429.304 288.532 407.267 298.572C393.041 304.783 375.348 305.289 360.449 301.366C359.289 301.091 359.289 301.091 358.105 300.811C346.165 297.671 335.555 291.622 326.449 283.366C325.295 282.333 325.295 282.333 324.117 281.28C313.522 271.28 307.987 259.921 303.449 246.366C303.085 245.363 302.722 244.36 302.347 243.327C296.856 225.229 300.708 203.779 309.449 187.366C321.358 167.766 337.557 155.33 359.199 148.116C386.12 141.903 411.981 149.375 432.777 166.881Z" fill="#6E00BB"/>
<path d="M411.449 179.366C422.225 187.217 430.354 198.271 433.449 211.366C433.629 212.121 433.81 212.877 433.996 213.655C436.354 227.768 434.18 242.994 426.203 255.03C415.947 268.688 404.234 276.921 387.449 280.366C371.451 282.501 357.814 278.019 344.523 269.069C334.421 261.173 326.857 248.964 324.449 236.366C322.522 219.104 324.739 204.385 335.449 190.366C355.53 166.631 385.356 163.482 411.449 179.366Z" fill="white"/>
<path d="M578.449 23.3656C579.946 49.1425 572.8 76.2066 566.199 100.928C566.02 101.597 565.842 102.267 565.658 102.956C562.651 114.163 562.651 114.163 561.449 115.366C548.697 117.397 538.92 111.976 528.812 104.877C512.919 93.1437 500.06 78.6123 490.449 61.3656C489.83 60.2931 489.211 59.2206 488.574 58.1156C486.819 52.2649 487.222 46.4282 487.449 40.3656C516.72 31.8928 547.694 23.0225 578.449 23.3656Z" fill="white"/>
<path d="M260.074 337.241C261.269 337.237 261.269 337.237 262.488 337.233C264.449 337.366 264.449 337.366 265.449 338.366C265.799 344.112 265.088 348.619 262.949 353.991C262.68 354.679 262.412 355.368 262.135 356.078C257.12 368.51 249.876 379.041 241.449 389.366C240.629 390.391 239.809 391.415 238.964 392.471C227.425 406.672 214.341 419.708 199.449 430.366C198.849 430.8 198.248 431.234 197.63 431.681C185.995 440.012 169.396 451.582 154.449 450.366C152.449 448.366 152.449 448.366 152.296 446.405C155.062 415.327 185.345 384.659 207.743 365.392C212.494 361.502 217.416 357.88 222.449 354.366C223.055 353.936 223.662 353.506 224.287 353.063C234.078 346.186 247.763 337.201 260.074 337.241Z" fill="white"/>
<path d="M187.105 205.268C187.893 205.269 188.68 205.271 189.492 205.272C191.978 205.278 194.463 205.29 196.949 205.303C198.647 205.308 200.345 205.313 202.042 205.317C206.178 205.328 210.313 205.345 214.449 205.366C211.201 209.235 207.943 212.96 204.261 216.428C190.628 229.993 179.552 247.056 173.449 265.366C148.108 266.143 122.801 266.51 97.4487 266.366C102.112 260.78 107.059 255.565 112.179 250.397C113.01 249.558 113.841 248.719 114.698 247.854C116.45 246.088 118.204 244.323 119.96 242.559C121.74 240.768 123.515 238.972 125.286 237.172C127.865 234.549 130.458 231.941 133.054 229.334C133.832 228.539 134.609 227.744 135.41 226.925C149.621 212.769 167.125 205.13 187.105 205.268Z" fill="white"/>
<path d="M397.449 388.366C397.549 393.824 397.621 399.282 397.668 404.741C397.688 406.593 397.715 408.444 397.75 410.295C397.954 421.397 397.789 430.975 393.449 441.366C393.151 442.093 392.853 442.821 392.547 443.57C391.739 445.393 390.815 447.164 389.886 448.928C389.018 450.632 389.018 450.632 388.132 452.37C380.506 464.704 368.053 474.918 357.866 485.079C355.291 487.649 352.721 490.224 350.152 492.799C348.519 494.431 346.886 496.063 345.253 497.694C344.484 498.466 343.714 499.237 342.921 500.032C342.216 500.734 341.511 501.436 340.784 502.16C339.851 503.091 339.851 503.091 338.9 504.042C337.449 505.366 337.449 505.366 336.449 505.366C336.371 488.192 336.589 471.035 336.949 453.866C336.997 451.47 337.045 449.074 337.093 446.678C337.209 440.907 337.328 435.137 337.449 429.366C338.504 428.915 339.558 428.464 340.645 427.999C351.593 423.312 351.593 423.312 362.074 417.678C362.773 417.262 363.471 416.846 364.192 416.418C374.98 409.79 384.026 401.071 392.807 392.022C396.357 388.366 396.357 388.366 397.449 388.366Z" fill="white"/>
<path d="M122.449 471.366C126.106 473.406 128.118 474.87 130.449 478.366C130.785 480.416 130.785 480.416 130.824 482.678C130.852 483.417 130.88 484.155 130.91 484.916C129.688 491.406 123.877 496.229 119.389 500.7C118.334 501.763 118.334 501.763 117.258 502.846C114.944 505.174 112.623 507.495 110.3 509.815C108.683 511.436 107.067 513.057 105.45 514.678C102.066 518.069 98.6781 521.457 95.2875 524.843C90.9458 529.178 86.6155 533.526 82.2883 537.876C78.9546 541.224 75.6141 544.566 72.2715 547.905C70.672 549.505 69.0748 551.108 67.4801 552.713C65.2497 554.955 63.0099 557.188 60.7675 559.419C60.1128 560.082 59.458 560.744 58.7834 561.426C54.3021 565.857 50.3733 568.948 43.9487 569.866C39.2712 569.198 37.7592 567.676 34.4487 564.366C32.6546 560.778 32.7542 557.266 33.4487 553.366C34.7707 551.403 34.7707 551.403 36.5211 549.529C37.4785 548.494 37.4785 548.494 38.4552 547.438C39.113 546.754 39.7709 546.07 40.4487 545.366C41.0369 544.751 41.6252 544.136 42.2313 543.502C44.0675 541.611 45.9247 539.743 47.7892 537.88C48.4861 537.18 49.183 536.479 49.9009 535.758C52.1786 533.471 54.4598 531.188 56.7416 528.905C58.3364 527.307 59.9311 525.709 61.5257 524.111C64.8549 520.775 68.1862 517.442 71.5187 514.11C75.791 509.838 80.0563 505.559 84.3199 501.278C87.6047 497.982 90.894 494.691 94.1846 491.401C95.7599 489.825 97.3336 488.246 98.9056 486.667C101.098 484.465 103.296 482.269 105.496 480.075C106.468 479.095 106.468 479.095 107.46 478.095C108.061 477.498 108.662 476.901 109.281 476.286C110.059 475.508 110.059 475.508 110.852 474.714C114.53 471.608 117.662 470.791 122.449 471.366Z" fill="#6E00BB"/>
<path d="M90.4486 386.366C93.9561 388.412 96.1882 390.47 97.4486 394.366C98.1503 399.746 96.6026 402.087 93.4486 406.366C91.4458 408.629 89.3271 410.761 87.183 412.89C86.5646 413.512 85.9462 414.134 85.3091 414.775C83.2772 416.815 81.2382 418.849 79.1986 420.881C77.7787 422.303 76.3591 423.724 74.9398 425.146C71.9707 428.118 68.9981 431.086 66.0228 434.052C62.2095 437.854 58.4052 441.665 54.6036 445.479C51.6767 448.413 48.7451 451.342 45.812 454.27C44.4071 455.674 43.0037 457.079 41.6018 458.485C39.6441 460.448 37.68 462.404 35.7142 464.359C34.8475 465.232 34.8475 465.232 33.9634 466.122C30.0915 469.953 27.5128 472.054 22.1361 472.866C17.8577 472.286 15.917 471.223 12.8509 468.268C10.2475 464.736 9.87661 461.648 10.4486 457.366C14.7022 448.891 23.6295 441.916 30.2728 435.311C31.6251 433.96 32.9769 432.609 34.3284 431.257C37.1487 428.438 39.9722 425.623 42.7985 422.81C46.4218 419.204 50.0384 415.591 53.6528 411.976C56.438 409.191 59.2258 406.409 62.0145 403.627C63.3496 402.295 64.684 400.963 66.0178 399.63C67.8773 397.772 69.7399 395.919 71.6036 394.066C72.4289 393.24 72.4289 393.24 73.2708 392.397C78.9369 386.778 82.5683 385.334 90.4486 386.366Z" fill="#6E00BB"/>
<path d="M464.449 49.3657C464.572 50.1907 464.696 51.0157 464.824 51.8657C466.653 62.1095 470.378 70.3576 475.449 79.3657C475.995 80.3441 476.542 81.3225 477.105 82.3306C481.95 90.4184 488.155 97.3888 494.449 104.366C495.055 105.045 495.66 105.724 496.285 106.424C511.54 122.57 531.658 134.453 553.449 138.366C551.787 144.222 549.978 149.825 547.449 155.366C525.836 154.607 505.054 138.931 489.894 124.655C487.802 122.696 485.661 120.872 483.449 119.053C467.284 104.9 451.317 81.8036 447.449 60.3657C447.411 58.6995 447.402 57.0317 447.449 55.3657C459.187 49.3657 459.187 49.3657 464.449 49.3657Z" fill="white"/>
<path d="M209.449 505.366C212.474 507.102 214.867 509.202 216.449 512.366C216.821 518.037 216.68 520.581 213.449 525.366C211.453 527.636 209.32 529.757 207.173 531.884C206.542 532.517 205.911 533.151 205.26 533.803C203.181 535.886 201.094 537.962 199.007 540.038C197.559 541.485 196.11 542.933 194.663 544.381C191.632 547.41 188.598 550.436 185.561 553.459C181.663 557.34 177.772 561.228 173.882 565.118C170.895 568.105 167.905 571.09 164.913 574.074C163.477 575.507 162.041 576.941 160.606 578.375C158.605 580.374 156.6 582.37 154.595 584.365C153.999 584.961 153.403 585.557 152.789 586.172C149.184 589.749 147.272 591.516 142.199 591.741C138.645 591.718 136.701 591.262 133.949 588.991C131.041 585.938 130.519 585.279 130.199 581.116C130.712 573.424 135.234 569.154 140.46 564.026C141.148 563.341 141.835 562.656 142.542 561.95C143.994 560.505 145.449 559.064 146.907 557.626C149.118 555.446 151.319 553.256 153.517 551.063C154.935 549.654 156.354 548.246 157.773 546.838C158.747 545.871 158.747 545.871 159.74 544.884C163.557 541.125 167.489 537.559 171.54 534.055C174.43 531.497 177.141 528.779 179.847 526.03C180.408 525.465 180.969 524.9 181.547 524.318C183.309 522.545 185.067 520.768 186.824 518.991C189.162 516.626 191.504 514.264 193.847 511.905C194.38 511.363 194.914 510.822 195.463 510.264C199.881 505.816 203.083 504.279 209.449 505.366Z" fill="#6E00BB"/>
<path d="M65.4486 302.366C68.2685 304.187 69.9521 305.373 71.4486 308.366C71.8208 314.042 71.6427 316.558 68.4486 321.366C66.8746 323.119 65.2461 324.824 63.5817 326.491C63.1 326.977 62.6183 327.462 62.122 327.962C60.5392 329.553 58.9493 331.137 57.3588 332.721C56.2513 333.83 55.1442 334.939 54.0373 336.048C51.7214 338.367 49.4018 340.683 47.0797 342.995C44.106 345.958 41.1413 348.929 38.1793 351.903C35.8966 354.193 33.6092 356.478 31.3204 358.761C30.2253 359.855 29.1317 360.95 28.0396 362.047C26.5129 363.579 24.9798 365.104 23.4449 366.628C22.5746 367.497 21.7043 368.366 20.8076 369.261C17.7456 371.993 15.6318 373.211 11.5736 373.741C7.0136 373.193 3.91401 371.231 1.0736 367.616C-0.100042 363.391 -0.735983 359.49 1.44944 355.57C6.07249 349.539 11.3226 344.2 16.7025 338.846C17.6912 337.856 18.6795 336.866 19.6676 335.875C21.726 333.814 23.788 331.756 25.8527 329.701C28.4911 327.074 31.1203 324.438 33.747 321.799C35.7809 319.758 37.8196 317.722 39.8597 315.687C40.8311 314.717 41.8011 313.745 42.7695 312.772C44.1233 311.413 45.4842 310.062 46.8453 308.71C48.0007 307.557 48.0007 307.557 49.1793 306.381C54.6438 301.528 58.4586 300.466 65.4486 302.366Z" fill="#6E00BB"/>
<path d="M294.449 531.366C297.511 533.803 297.511 533.803 299.449 536.366C299.944 536.861 299.944 536.861 300.449 537.366C300.793 539.37 300.793 539.37 300.949 541.928C301.057 543.168 301.057 543.168 301.168 544.432C299.119 552.793 288.979 559.999 283.062 565.92C282.073 566.913 281.083 567.906 280.094 568.898C278.036 570.962 275.976 573.025 273.914 575.085C271.277 577.723 268.646 580.368 266.016 583.014C263.982 585.059 261.944 587.1 259.904 589.139C258.932 590.113 257.961 591.088 256.992 592.065C255.64 593.426 254.281 594.781 252.923 596.135C251.769 597.291 251.769 597.291 250.591 598.471C247.414 601.281 245.297 602.271 241.074 602.741C236.731 602.291 234.742 601.199 231.449 598.366C229.34 594.723 228.939 591.528 229.449 587.366C231.962 583.171 234.809 579.757 238.262 576.31C238.725 575.844 239.189 575.378 239.667 574.898C241.185 573.377 242.709 571.864 244.234 570.35C245.298 569.288 246.361 568.225 247.424 567.162C249.644 564.943 251.867 562.728 254.094 560.515C256.946 557.68 259.791 554.838 262.634 551.994C264.826 549.803 267.02 547.614 269.215 545.426C270.266 544.379 271.315 543.331 272.364 542.283C273.829 540.821 275.297 539.362 276.765 537.904C277.599 537.074 278.433 536.243 279.293 535.388C284.075 530.902 288.097 530.332 294.449 531.366Z" fill="#6E00BB"/>
<path d="M271.449 386.366C275.589 388.667 279.541 391.059 283.434 393.766C293.224 400.559 304.09 407.579 315.449 411.366C315.449 412.026 315.449 412.686 315.449 413.366C307.455 415.093 299.746 415.784 291.574 415.803C289.827 415.809 289.827 415.809 288.045 415.815C277.029 415.671 266.959 413.52 256.449 410.366C256.449 405.715 257.094 405.14 260.011 401.741C264.131 396.806 267.833 391.677 271.449 386.366Z" fill="white"/>
<path d="M189.449 287.366C192.667 288.975 193.525 292.355 195.011 295.491C201.057 307.888 208.079 319.396 216.449 330.366C213.549 333.422 210.51 335.873 207.074 338.303C203.911 340.562 200.823 342.82 197.886 345.366C195.449 347.366 195.449 347.366 193.449 347.366C185.832 329.914 184.513 305.788 189.449 287.366Z" fill="white"/>
</svg>
